# xmcd
#
# Track frame offsets:
#	150
#	17399
#	32707
#	46433
#	62670
#	82738
#	97910
#	114127
#	130637
#	152226
#	165342
#	179370
#	191199
#	204774
#	220442
#	233189
#
# Disc length: 3342 seconds
#
# Revision: 0
# Processed by: cddbd v1.5.2PL0 Copyright (c) Steve Scherf et al.
# Submitted via: dBpowerAMP V4.0
#
DISCID=c10d0c10
DTITLE=Wenche - Friday Night Cowgirl
DYEAR=2009
DGENRE=Country
TTITLE0=Thomas Jones
TTITLE1=Applejack
TTITLE2=Jackson (Duet With Billy Swan)
TTITLE3=Dreamin' In My Dreams
TTITLE4=Mississippi
TTITLE5=Friday Night Cowgirl
TTITLE6=Withering Roses
TTITLE7=There's A Song For Every Moment
TTITLE8=I Have A Dream
TTITLE9=Let's Run
TTITLE10=Why Did You Have To Go Away
TTITLE11=Paper Roses
TTITLE12=Stand By Me
TTITLE13=Eyes Of The Past
TTITLE14=Plug My Heart Into The Jukebox
TTITLE15=Yesterday Once More
EXTD=Wenche\nFriday Night Cowgirl\n2009
EXTT0=
EXTT1=
EXTT2=
EXTT3=
EXTT4=
EXTT5=
EXTT6=
EXTT7=
EXTT8=
EXTT9=
EXTT10=
EXTT11=
EXTT12=
EXTT13=
EXTT14=
EXTT15=
PLAYORDER=
